<svg width="120" height="94" viewBox="0 0 120 94" fill="none" xmlns="http://www.w3.org/2000/svg">
<path d="M95.2395 68.1757H75.614C75.1121 68.1757 74.7014 67.7114 74.7014 67.1439C74.7014 66.573 75.1121 66.1121 75.614 66.1121H94.327V15.8543H77.5728C77.0679 15.8543 76.6603 15.3934 76.6603 14.8225C76.6603 14.2516 77.0679 13.7907 77.5728 13.7907H95.2395C95.7445 13.7907 96.1521 14.2516 96.1521 14.8225V67.1439C96.1521 67.7114 95.7445 68.1757 95.2395 68.1757Z" fill="white"/>
<path d="M86.5269 68.1757C86.0731 68.1757 85.7018 67.7114 85.7018 67.1439V14.8225C85.7018 14.2516 86.0731 13.7907 86.5269 13.7907C86.9834 13.7907 87.3519 14.2516 87.3519 14.8225V67.1439C87.3519 67.7114 86.9834 68.1757 86.5269 68.1757Z" fill="white"/>
<path d="M76.078 58.7994C75.8534 58.7994 75.6344 58.6767 75.4783 58.4699C75.1661 58.0492 75.1771 57.3832 75.5057 56.98C75.5988 56.8679 75.7082 56.7872 75.8233 56.7416C77.1295 56.1457 78.0085 54.5542 78.0085 52.7769C78.0085 51.1257 77.2527 49.6219 76.0834 48.9488C76.0725 48.9418 76.0616 48.9347 76.0479 48.9277C75.9712 48.8822 75.8972 48.8191 75.8315 48.7385C75.5029 48.3354 75.4919 47.6728 75.8041 47.2521C75.9849 47.0032 76.256 46.8841 76.5189 46.9331C76.6257 46.9507 76.7297 46.9997 76.8228 47.0698C78.5425 48.1004 79.6516 50.33 79.6516 52.7769C79.6516 55.4271 78.3509 57.8038 76.4093 58.7047C76.3053 58.7643 76.1902 58.7994 76.078 58.7994Z" fill="white"/>
<path d="M34.562 2.10471C32.5289 2.10471 30.8761 3.97499 30.8761 6.27583V16.5125L33.1772 75.8728C33.2654 78.1082 34.8816 79.8614 36.86 79.8614H64.6912C66.6696 79.8614 68.2858 78.1082 68.374 75.8728L70.6751 16.4677V6.27583C70.6751 3.97499 69.0223 2.10471 66.9892 2.10471H34.562ZM64.6912 81.928H36.86C33.9016 81.928 31.4848 79.3069 31.354 75.9624L29.0499 16.5573V6.27583C29.0499 2.8349 31.5214 0.0380783 34.562 0.0380783H66.9892C70.0298 0.0380783 72.5013 2.8349 72.5013 6.27583V16.5125L70.1973 75.9624C70.0694 79.3069 67.6496 81.928 64.6912 81.928Z" fill="white"/>
<path d="M63.8933 17.5409H29.9576C29.4554 17.5409 29.0499 17.1221 29.0499 16.6032C29.0499 16.0875 29.4554 15.6656 29.9576 15.6656H63.8933C64.3926 15.6656 64.801 16.0875 64.801 16.6032C64.801 17.1221 64.3926 17.5409 63.8933 17.5409Z" fill="white"/>
<path d="M39.7532 24.5618C38.4991 24.5618 37.4765 25.6895 37.4765 27.0798V38.633C37.4765 40.0233 38.4991 41.151 39.7532 41.151H61.2483C62.5023 41.151 63.5249 40.0233 63.5249 38.633V27.0798C63.5249 25.6895 62.5023 24.5618 61.2483 24.5618H39.7532ZM61.2483 43.1708H39.7532C37.4916 43.1708 35.6503 41.1375 35.6503 38.633V27.0798C35.6503 24.5753 37.4916 22.542 39.7532 22.542H61.2483C63.5098 22.542 65.3512 24.5753 65.3512 27.0798V38.633C65.3512 41.1375 63.5098 43.1708 61.2483 43.1708Z" fill="white"/>
<path d="M45.7065 53.7982H39.8953C39.3756 53.7982 38.9504 53.3678 38.9504 52.8345V49.7604C38.9504 49.2272 39.3756 48.7968 39.8953 48.7968C40.4181 48.7968 40.8402 49.2272 40.8402 49.7604V51.8709H45.7065C46.2294 51.8709 46.6515 52.3013 46.6515 52.8345C46.6515 53.3678 46.2294 53.7982 45.7065 53.7982Z" fill="white"/>
<path d="M61.1071 53.7982H55.2959C54.773 53.7982 54.351 53.3678 54.351 52.8345V49.7604C54.351 49.2272 54.773 48.7968 55.2959 48.7968C55.8156 48.7968 56.2408 49.2272 56.2408 49.7604V51.8709H61.1071C61.63 51.8709 62.052 52.3013 62.052 52.8345C62.052 53.3678 61.63 53.7982 61.1071 53.7982Z" fill="white"/>
<path d="M45.7065 64.4257H39.8953C39.3756 64.4257 38.9504 63.9411 38.9504 63.3408V59.8839C38.9504 59.2836 39.3756 58.799 39.8953 58.799C40.4181 58.799 40.8402 59.2836 40.8402 59.8839V62.256H45.7065C46.2294 62.256 46.6515 62.7442 46.6515 63.3408C46.6515 63.9411 46.2294 64.4257 45.7065 64.4257Z" fill="white"/>
<path d="M61.1071 64.4257H55.2959C54.773 64.4257 54.351 63.9411 54.351 63.3408V59.8839C54.351 59.2836 54.773 58.799 55.2959 58.799C55.8156 58.799 56.2408 59.2836 56.2408 59.8839V62.256H61.1071C61.63 62.256 62.052 62.7442 62.052 63.3408C62.052 63.9411 61.63 64.4257 61.1071 64.4257Z" fill="white"/>
<path d="M45.7065 74.4268H39.8953C39.3756 74.4268 38.9504 73.9932 38.9504 73.4632V70.389C38.9504 69.8558 39.3756 69.4254 39.8953 69.4254C40.4181 69.4254 40.8402 69.8558 40.8402 70.389V72.4995H45.7065C46.2294 72.4995 46.6515 72.9299 46.6515 73.4632C46.6515 73.9932 46.2294 74.4268 45.7065 74.4268Z" fill="white"/>
<path d="M61.1071 74.4268H55.2959C54.773 74.4268 54.351 73.9932 54.351 73.4632V70.389C54.351 69.8558 54.773 69.4254 55.2959 69.4254C55.8156 69.4254 56.2408 69.8558 56.2408 70.389V72.4995H61.1071C61.63 72.4995 62.052 72.9299 62.052 73.4632C62.052 73.9932 61.63 74.4268 61.1071 74.4268Z" fill="white"/>
<path d="M25.8708 69.4257C25.349 69.4257 24.9152 68.996 24.8924 68.4427L23.0008 22.9937C22.978 22.4231 23.3954 21.942 23.9368 21.9179C24.488 21.8939 24.9315 22.3338 24.9543 22.9009L26.8492 68.3498C26.872 68.9204 26.4546 69.4016 25.9132 69.4257C25.9002 69.4257 25.8838 69.4257 25.8708 69.4257Z" fill="white"/>
<ellipse rx="55.6695" ry="21.0382" transform="matrix(-0.998499 0.0547787 -0.0655311 -0.997851 56.9646 69.9575)" fill="url(#paint0_linear_0_63)"/>
<ellipse cx="3.99005" cy="61.952" rx="2.41687" ry="2.20899" fill="#D9D9D9"/>
<ellipse cx="117.571" cy="39.549" rx="2.41687" ry="2.20899" fill="#D9D9D9"/>
<ellipse cx="19.8706" cy="4.20899" rx="2.41687" ry="2.20899" fill="#693B93"/>
<ellipse cx="93.4044" cy="84.9863" rx="2.41687" ry="2.20899" fill="#693B93"/>
<defs>
<linearGradient id="paint0_linear_0_63" x1="55.6695" y1="0" x2="55.6695" y2="42.0764" gradientUnits="userSpaceOnUse">
<stop stop-color="#2C1250"/>
<stop offset="0.197917" stop-color="#2C1250"/>
<stop offset="0.901042" stop-color="#2C1250" stop-opacity="0"/>
</linearGradient>
</defs>
</svg>
